<?xml version="1.0" encoding="utf-8"?>
<!-- Generator: Adobe Illustrator 22.1.0, SVG Export Plug-In . SVG Version: 6.00 Build 0)  -->
<svg version="1.1" id="Layer_1" xmlns="http://www.w3.org/2000/svg" xmlns:xlink="http://www.w3.org/1999/xlink" x="0px" y="0px"
	 viewBox="0 0 207 240" style="enable-background:new 0 0 207 240;" xml:space="preserve">
<style type="text/css">
	.st0{fill:#6D3485;}
</style>
<title>mailing</title>
<desc>Created with Sketch.</desc>
<path id="Accent" class="st0" d="M55,54.4c-0.2,4-0.5,8-0.7,12c1.6-0.5,11.6-3.4,11-0.4c-0.4,2.1-3.3,4.5-4.7,5.9
	c-1.3,1.4-2.7,2.7-4.1,4c2.6-1,5.1-1.9,7.7-2.8c2-0.7,4-1.3,6-1.8c0.7-0.2,2.8-0.9,3.5-0.4c1.9,1.3-8.2,11.2-9.6,12.6
	c2-0.9,4-1.7,6-2.4c1.5-0.5,6-2.5,7.3-0.8c1.4,1.8-2.1,5.9-3,7.2C73,89.3,71.5,91,70,92.7c6.5,5.8,14.1,11,22.2,14.2
	c5.9,2.4,11.8,3,18,1.7c6.4-1.3,12.6-3.9,18.5-6.8c3.4-1.7,6.8-3.6,10.1-5.6c-1.3-1.6-2.6-3.3-3.9-5c-1.8-2.4-4-5-5-7.9
	c-1-2.8,2.8-2.3,4.6-2.1c2.6,0.2,5.2,0.7,7.8,1.2c-1.8-1.3-3.6-2.6-5.3-3.9c-2.3-1.8-5.3-3.8-6.8-6.3c-1.3-2.2,1.6-1.7,2.9-1.4
	c3.2,0.7,6.2,1.9,9.3,3c2.2,0.8,4.4,1.7,6.6,2.7c-1.3-1.2-2.7-2.4-3.9-3.7c-1.7-1.7-4-3.8-4.7-6.2c-1.5-4.8,8.8-1.2,10.6-0.4
	c-0.3-5-0.7-9.9-1-14.9c-13.7,3.6-27.4,7.3-41.1,10.9c-1.5,0.4-3.3,1.3-4.9,1.3c-1.4,0-3.1-0.6-4.5-0.8l-24.8-4.7
	C68,56.8,61.5,55.6,55,54.4"/>
<g id="Ink" transform="translate(74.561604, 13.723080)">
	<path id="ink" d="M127.8,211.6c-1.5,0.8-3.2,1.5-4.9,1.9c-1,0.3-2.6,1.1-3.4,0.3c-0.4-0.3-0.5-1.1-0.7-1.6c-0.4-0.7-0.9-1.4-1.4-2
		c-1.2-1.6-2.5-3.1-3.8-4.5c-0.6-0.7-1.8-2.3-2.9-2.2c-1.4,0.1-1.4,2.1-1,3c1.1,3.1,4.5,5.9,6.7,8.2c-0.6,0.9-3.6,0.8-4.5,0.6
		c-1.3-0.3-1.4-1.2-2-2.3c-1.4-2.5-4.2-3.9-6.5-5.3c-0.8-0.5-2.6-2-3.7-1.6c-1,0.3-1,1.7-0.7,2.5c0.5,1.3,1.9,2.2,3,3
		c1.4,1.1,2.7,2.3,3.9,3.7c-1.7,0.1-3.4,0.4-5.1,0.5c-2,0.2-3.7-0.9-5.6-1.6c-1.7-0.6-3.5-1.1-5.2-1.8c-1.9-0.8-3.9-1-5.9-1.7
		c-7.6-2.6-15.1-5.9-22.4-9.2c-3.5-1.6-6.9-3.2-10.6-4.4c-2.7-0.9-6.8-2.7-7.5-5.9c-0.3-1.7,0.9-3.5,1.1-5.1c0.2-2,0-4.1-0.6-6
		c-0.5-1.7-1.4-3.2-2.1-4.8c-0.8-1.9-0.1-1.8,1.5-2c1.9-0.3,4-1.3,5.8-2c2-0.8,4-1.9,5.9-3c1.7-1,3.1-2.3,4.5-3.8
		c1.4-1.5,2.2-3.2,3.5-4.7c4.8,5.9,9.4,12,14.6,17.6c2.4,2.7,5.1,4.9,8,6.9c1.2,0.9,2.5,1.8,3.8,2.5c1.7,0.8,3.6,1.4,5.3,2.1
		c6.7,2.9,13.1,6.2,19.3,10c3,1.8,5.6,3.9,8.2,6.3C123.3,206.1,130.1,210.3,127.8,211.6 M49.2,163c-1.1,0.5-2.1,1.1-3.3,1.4
		c0.3-2,2.2-5,4.6-4.7c0.9,0.1,1.6,0.8,1.2,1.8C51.4,162.5,50,162.6,49.2,163 M-26.1,109c-1.2,0.7-2.4,1.1-3.1-0.4
		C-28.7,108.5-26.3,108.2-26.1,109 M-28.2,104.9c-0.9-0.3-0.2-0.6,0.1-0.9c0.3-0.3,1.1-1.2,1.4-1.4c1.3-0.7,2.3,1.9,2.9,2.7
		C-25.2,105.2-26.7,105.4-28.2,104.9 M-18,113.8c-1.8,0.3-1.6-1.9-1.5-3.1C-19.2,111.2-16.6,113.6-18,113.8 M-12.1,109.9
		c-2.2,0.4-3.6-3.4-3.2-5.1c0.3-1.5,2-2.3,3.4-2.5c1.3-0.2,3.1,0.1,3.5,1.6C-8,105.3-10.6,109.7-12.1,109.9 M39.8,167
		c-1.6,0.5-3.1,0.5-4.7,1c-1.8,0.5-3.5,0.5-5.3,0.9c-0.7,0.1-2.7,1.2-3.4,1c-0.7-0.2-1.7-2.4-2.1-3c3.2-1.3,5.9-3,8-5.8
		c1.7-2.2,3.5-5.5,2.4-8.4c-1.2-3.2-5.3-3.9-8-2.6c-1.3,0.6-2.6,1.4-3.6,2.4c-1.2,1.1-1.7,2.3-2.5,3.7c-0.8,1.4-1.4,0.6-2.1-0.6
		c-0.7-1-0.6-2-1.4-3c-0.4-0.5-1.1-1-1.3-1.6c-0.1-0.4,0.2-1.1-0.1-1.5c-0.4-0.5-0.8,0.1-1.2-0.3c-0.2-0.3-0.2-1-0.4-1.3
		c-0.2-0.2-0.4-0.4-0.7-0.5c-0.3-0.2-0.4-0.3-0.2-0.6c-0.2-0.5,0-0.6-0.5-1.2c-0.8-0.9-1.6-1.7-2.2-2.7c-0.3-0.5-0.2-1.2-0.6-1.6
		c-0.5-0.6-1.2-0.5-1.6-1.2c-0.4-0.6-0.1-1.7-0.7-2.2c-0.3-0.1-0.6-0.2-0.9-0.3c-0.2-0.2-0.4-0.5-0.4-0.8c-0.3-0.5-0.4-1.1-0.8-1.6
		c-0.8-1-1.8-1.9-2.5-3c-0.7-1.1-0.3-1.3,0.9-1.7c1.1-0.4,2.2-0.7,3.2-1.3c4.8-2.8,9.4-10.3,1.7-12.5c-2.8-0.8-5.2-3.1-8.3-2.2
		c-1.4,0.4-2.7,1.2-3.7,2.2c-0.7,0.7-1.4,2.5-2.2,2.8c-1.6,0.6-0.9-0.9-1.3-1.6c-0.2-0.3-1.1-0.7-1.4-1c-0.4-0.4-0.7-0.8-1-1.3
		c-0.5-0.8-0.8-1.3-1.5-2c-0.3-0.3-1.6-1.6-0.4-1.4c-0.5-1.4,0.2-1.7,1.2-2.7c1.1-1.2,2.3-2.9,2.3-4.7c0-3.3-3.9-4.8-6.4-2.8
		c-0.5,0.4-3.5,4.3-2.9,1.8c0.3-1.3,3.4-4.8,4.8-3.9c-1.6-2.3-5.2,3.3-6.1,4.4c-0.7-1.3-0.8-2.4-2-3.4c-1,1.6-0.5-0.1-0.7-0.5
		c-0.5-0.7-0.2,0.1-0.5-0.2c-0.3-0.3-0.8-0.6-1.1-1c-0.6,0.8-0.3-0.1-0.5-0.3c-0.4-0.7-0.2-1.1-0.9-1.6c-0.5-0.4-1.5-1.1-2.2-1.1
		c-0.8-0.1-1,0.2-1.8,0c-1-0.3-2.3-0.7-1.8,1c0.4,1.2,1.8,1.9,2.1,3.2c0.3,1.3-0.9,2.6-1.6,3.6c-0.8,1.3-1.4,1.2-2.9,1.5
		c-0.9,0.2-2.1,0.6-1.3,1.7c0.6,0.8,1.9,0.6,2.6,1.1c1,0.7,1,2.3,2.3,2.6c1.5,0.3,2.3-1.3,3.5-1.7c0.9-0.3,3.6-0.2,4.3,0.4
		c0.9,0.9,0.1,2.6,0.4,3.7c0.3,1.6,1.5,1.7,2.9,1.8c1.7,0.1,2.3,1.7,3.3,3c2.2,3.1,4.1,6.4,6.3,9.4c1,1.3,2.4,2.5,3.2,4
		c1,1.8-0.4,2.8-1.6,4.1c-1.6,1.7-2.7,3.6-4.1,5.5c-1.2,1.6-2.7,1.2-4.6,1.2c0.4-0.9,0.9-1.4,2-1.3c-1.1-1.3-2,0.2-2.7,1
		c-1,1.2-2.4,1.5-3.7,2.3c-0.5,0.3-3,2.1-2.3,2.8c0.1,0.1,4.3-2.7,4.8-3c0,1-0.2,2.1-0.1,3.1c0.1,0.8,0.6,1.5,0.5,2.3
		c-0.2,1.5-2.1,2.6-2.9,3.8c-0.6,0.9-0.5,1.5-0.8,2.5c-0.3,0.8-0.1,0.6-0.8,0.9c-1.5,0.5-3.9,0.2-5.2-0.5c-0.8-0.5-1.4-1.2-2.1-1.9
		c-0.5-0.5-1.8-1.3-1.9-2c-0.2-1.2,2.1-3.4,2.6-4.6c1.3-3.5-0.9-6.1-4.5-6.3c1.1-0.8,2.4-0.2,3.6,0.1c-2-2.7-5.3-0.5-7,1.4
		c-1.1-2.9-1.7-5.9-2.4-8.9c-0.5-2-2.3-5.7-1.5-7.8c0.4-1,1.5-1.6,2.2-2.3c0.9-0.8,1.6-1.8,2.2-2.7c1.5-2.3,2.3-5.3,0.3-7.6
		c0.6-0.1,1.2-0.2,1.9-0.3c-1-0.9-2.6-0.5-3.9-0.8c-0.8-0.2-3.2-0.1-3.8-0.5c-0.7-0.6-0.2-3.2-0.2-3.9c0.1-1.8,0.2-3.5,0.4-5.3
		c0.2-1.7,0.2-3.5,0.5-5.2c0.3-1.3,1.2-1.8,2.2-2.5c2.5-1.9,4.5-4.2,3.7-7.5c0.3,0,0.6-0.1,0.9-0.1c-1-0.7-2.2-0.4-3.3-0.8
		c1-2.8,3.2-7.7,6.8-8c0.1,1.3,0,2.7,0.9,3.8c1,1.2,2.7,1.3,4,0.7c1.2-0.6,2.3-1.8,2.8-3c0.4-0.8,0.3-2.2,1-2.8
		c0.9-0.9,6.9-0.3,6.7,1.1c-0.1,0.8-1.7,2.3-2.2,3c-0.8,1.4-1.5,2.9-1.8,4.4c-0.5,2.4-0.2,5.6,2.2,6.8c2.8,1.4,6.2-0.4,8.4-2
		c1.2-0.9,2.5-1.8,3.6-2.8c0.6-0.5,1.2-1.1,1.8-1.7c0.4-0.4,0.7-1.2,1.2-1.5c1.2-0.8,2.3,0.6,3.3,1.2C4.3,87,5.9,88.1,7.6,89
		c3.5,1.9,6.6,4.3,9.7,6.8c3.1,2.5,6.2,5,8.7,8.1c-1.5,0.9-1.2,1.2-1.9,2.8c-0.5,1.2-1.1,2.2-1.2,3.5c-0.1,2.2,1.3,4.2,3.5,4.7
		c1.2,0.3,2.4,0.1,3.5-0.4c0.9-0.4,1.8-1.3,2.7-1.6c1.7-0.4,3.1,2.8,4,3.9c4.3,5.1,8.8,9.9,12.8,15.2c0.4,0.6,1.8,1.7,1.9,2.5
		c0.2,1.1-1.6,2.2-2.3,2.8c-0.4,0.3-4.4,4.1-3.1,4.7c0.4,0.2,1.5-2.2,1.8-2.4c1.1-0.7,0.3,0.7,0.2,1.5c-0.2,1.8,1.1,2.8,2.9,2.6
		c1.9-0.2,3.6-1.7,4.7-3.1c1.5,1.7,3.8,4.3,4.2,6.5c0.3,1.4-1,5,1.4,5.3c0.4,0,1.7-0.9,1.9-0.4c0.2,0.5-1.2,1.2-1.4,1.4
		c-0.9,0.6-1.4,1.3-2.1,2.1c-0.8,0.9-1.9,1.7-2.9,2.6c-1,0.9-2.9,3.4-4.2,2.2c-0.6-0.6-0.5-1.4-1.5-1.8c-0.9-0.3-2.1,0.1-3,0.4
		c-1,0.4-4.2,1.9-4.6,3.1c-0.5,1.7,2.2-0.3,2.6-0.6c-0.5,1.4-0.8,3.4-2.2,4.2C42.7,166.2,41.1,166.6,39.8,167 M21.5,156.6
		c0.9-2.9,6.3-8.2,9.7-6.5C27.3,150.9,24.1,153.6,21.5,156.6 M23.5,165c-1.3-0.7-1.3-2.9-1.7-4.2c-0.3-0.7-0.8-1.3-0.6-2.1
		c0.2-0.9,1.4-2,2-2.7c2-2.1,5.6-5.1,8.8-4.6c4.1,0.6,1.3,6.1-0.1,8.1C30.7,161.3,26.1,166.5,23.5,165 M13.9,161.4
		c-4.5-0.3-8.9-0.7-13.3-1.5c-1.6-0.3-2.9-0.2-2-2c0.3-0.6,2.1-4.3,2.5-4.2c0.2,0.1,0.2,2.6,0.3,2.9c0.3,1.3,1.2,2.5,2.7,2.4
		c2.4-0.1,4-3.3,5.3-5c1,1.4,1.8,2.9,2.8,4.3C12.7,159,14.4,160.5,13.9,161.4 M-12.2,144c-0.7,1.7-2.3,3.3-3.3,4.9
		c-0.6-1.3-1-4.1,0.4-5C-14.6,143.5-11.7,142.9-12.2,144 M3.2,149.1c0.2-0.7,0.4-1.3,0.7-2C4.4,148.5,4.6,148.5,3.2,149.1
		 M7.1,150.5c0.5,0.9,1.4,1.8,1.3,3c-0.1,0.9-0.9,1.8-1.5,2.4c-0.9,1-3,2.9-4.3,1.6c-1.1-1.1-0.7-4.2-0.2-5.4
		C3.1,150.2,5.8,148.3,7.1,150.5 M4.4,148.6c0.3-0.1-0.3-2.1,0.3-2.3C5.2,147.5,5.7,147.8,4.4,148.6 M-4.1,121.7
		c-0.2-0.7-0.7-0.7-0.5-1.6c0.1-0.6,0.6-1.2,0.9-1.7c0.7-0.9,1.7-1.7,2.7-2.3c2.2-1.2,5.1-1.8,7.1,0.2c-1.8,0.3-7.4,2.1-7.4,4.5
		c2-0.4,3.6-2.4,5.6-3c1.7-0.5,3.5-0.5,5.1,0.1c4.5,1.5,2.6,5.4,0.1,7.9c-1.5,1.5-3.3,2.6-5.3,3.4c-0.9,0.4-1.5,0.4-2.4,0.2
		c-0.2,0-0.4-0.3-0.6-0.4c-0.5-0.2-0.4,0.4-0.8,0.1c-0.4-0.2-1.1-1.6-1.4-2.1c-0.4-0.6-0.6-1.3-1.1-1.9c-0.5-0.6-0.7-1.4-1.2-1.9
		c-0.2-0.3-0.8-0.2-1-0.5C-4.3,122.4-4,122.1-4.1,121.7 M-11,150.8c1-1.8,2.8-3.3,4.1-4.8C-6.8,148.5-8.6,150.2-11,150.8
		 M-9.6,151.6c2.1-0.7,3.3-2.5,3.5-4.7c0.3-2.7,2-4.2,3-6.6c0.4-0.9,0.9-4,2.4-3.2c0.5,0.3,0.8,1.4,1.1,2c0.7,1.3,1.4,2.5,2.1,3.7
		c0.6,1,1.4,2,1.2,3.2c-0.2,1-0.9,2.2-1.3,3.2c-1,2.3-2.3,4.5-3.4,6.8c-0.4,0.9-1,3.1-2.3,3.1c-1.1,0-0.9-1.2-1.6-1.6
		c-0.9-0.5-1.9,0.4-2.6,0.8c0.8-1.4,2.3-2.2,3.9-1.9c-1.9-1.9-3.3,0.7-4.9,1.3c-1.6,0.6-4.4-2-5.7-2.8c0.5-0.9,1-1.9,1.8-2.5
		C-11.6,151.8-10.6,151.9-9.6,151.6 M-26.9,169.3c0.2-1.1,0.9-1.8,1.3-2.8C-25.1,167.7-26.2,168.4-26.9,169.3 M6.8,176.1
		c-0.1,3.8-0.4,7.5-0.5,11.3c-0.1,1.7-0.4,3.4-0.6,5.1c-0.2,1.4-0.1,2.9-1,4.1c-1.4,2-4.2,2.5-6.4,3.2c-1.6,0.5-3.2,1-4.8,1.6
		c-1.4,0.5-2.6,1.3-3.9,2c-1.2,0.6-2.5,0.9-3.7,1.5c-1.2,0.6-2.2,1.4-3.5,1.9c-1.5,0.7-2.8,1.8-4.1,2.8c-1.2,0.8-2.5,1.5-3.5,2.5
		c-1,1-2.2,1.4-3.3,2.3c-1.2,0.9-2.4,1.5-3.6,2.2c-2.6,1.5-6.1,4-9.3,2.5c0.9-1.1,2.7-2.3,2.9-3.8c0.2-2.1-1.6-1.3-2.7-0.6
		c-1.6,1-2.4,2.2-3.6,3.5c-1.4,1.6-3.2,0.5-4.9,0.1c1.2-1.1,2.3-2.1,3.5-3.2c1-0.9,2.5-1.9,3.1-3.1c0.4-0.9,0.4-2.1-0.6-2.5
		c-1.2-0.5-2.5,0.6-3.3,1.2c-2.3,1.7-3.8,3.9-5.3,6.2c-0.8,1.3-1.2,1.2-2.6,0.9c-1.6-0.3-3.1-0.6-4.7-0.7c2.1-2.1,4.4-4.4,6-6.9
		c0.5-0.8,1.2-2.9-0.4-3.1c-0.7-0.1-2,1.3-2.5,1.6c-2.2,1.6-4.4,3.6-5.9,6c-0.5,0.8-0.6,1.6-1.6,1.7c-1.2,0.1-3.6-1.1-4.8-1.5
		c2.3-2.9,4.6-5.8,7.3-8.4c2.5-2.3,4.9-4,7.8-5.8c3.1-1.9,6-4.1,8.8-6.4c2.7-2.2,5.6-4.2,8.1-6.7c5-4.9,9.4-10.4,13.1-16.3
		c0.9-1.4,1.7-2.8,2.4-4.3c0.7-1.4,1-3,1.9-4.3c0.3-0.4,0.7-0.8,1-1.2c0.3-0.4,0.2-0.9,0.6-1.3c0.9-0.9,2.6-0.3,3.4,0.3
		c1.4,1,2.5,2.2,4,3c1.5,0.8,3.1,1.4,4.8,1.8c3.9,1,7.8,1.7,11.8,2.3c-0.4,1.5,0.6,1.8,0.9,3.1C7.4,172.3,6.8,174.4,6.8,176.1
		 M-30.9,150.8c-0.9-1.3-1.7-2.7-2.6-4c-0.5-0.8-1.2-1.7-0.7-2.7c0.8-1.7,3.5-2,4.9-1.2C-25.9,144.5-29,149.2-30.9,150.8
		 M-39.7,120.7c-0.3-2.6,0.7-4.4,3-5.8c1.7-1,3,0.4,2.8,2.1c-0.3,2.7-3.2,5.6-5.4,7C-39.5,122.9-39.6,121.8-39.7,120.7 M-40.1,113.3
		c0.7-0.5,2.5,0.2,3.3,0.2c-1.1,1-2.2,1.9-3.3,2.9C-40.1,115.7-40.7,113.8-40.1,113.3 M-36.4,88.4c5.5-0.7-0.8,5.2-2.4,6.2
		C-38.6,93.3-37.9,88.6-36.4,88.4 M-21.6,78c-0.7,3-6.5,6.4-6.6,1.4c0-1.9,1-1.7,2.5-1.9C-24.8,77.4-21.2,76.3-21.6,78 M-41.6,82.7
		c-0.7,1.7-1.2,3.5-1.8,5.2c-0.3,0.8-0.6,1.3-1.1,1.9c-0.4,0.5-1,0.6-0.9,1.4c0.6-0.1,1-0.4,1.4-0.8c-0.1,1.6-0.7,3.3-0.9,4.8
		c-0.3,1.9-0.6,3.7-0.7,5.6c-0.2,4.1-0.2,8.2-0.1,12.4c0,2.1,0.1,4.2,0.2,6.3c0.1,1,0.1,2.1,0.3,3.1c0.1,0.4,0.4,1.3,0.2,1.7
		c-0.7,1.5-4-2.7-5.4-2.1c0.2-1.2-0.3-0.9-1.1-1.5c-0.4-0.3-0.6-0.8-1-1c-0.1-0.1-0.3-0.2-0.4-0.3c-0.2-0.2-0.3-0.2-0.5,0.1
		c-1.6-1-2-3-2.9-4.4c-0.4-0.7-0.9-0.8-0.9-1.8c-0.1-0.9,0.1-1.7,0-2.6c0-1-0.1-2-0.4-3c-0.3-1.1-0.7-1-1.6-1.6
		c0.3-0.1,0.4-0.3,0.5-0.6c-0.3,0-1.1,0.4-1.3,0.1c-0.4-0.5,0.5-0.5,0.8-0.7c-1.1-0.5-0.8-0.9-0.4-1.7c0.1-0.2,0.2-0.6,0.3-0.8
		c0.2-0.4,0.3-0.2,0.4-0.7c0.1-0.5-0.4-1.6-0.5-2.1c-0.2-0.9-0.4-1.8-0.2-2.8c0.2-0.8,0.6-1.5,0.7-2.3c0-0.2-0.3-0.3-0.3-0.5
		c0-0.3,0.3-0.5,0.4-0.8c0.2-0.8,0.1-1.6,0.5-2.3c0.3-0.7,0.9-1.5,1.4-2.1c0.3-0.4,1.1-0.8,1.1-1.4c0.1-0.3-0.5-0.3-0.5-0.6
		c0-0.4,0.3-0.5,0.4-0.7c0.2-0.7,0.3-1.4,0.9-2c0.7-0.7,1.1-0.4,1.1-1.6c0-0.6-0.4-0.6-0.2-1.3c0.1-0.4,0.5-0.6,0.8-0.8
		c0.7-0.7,1.2-1.4,1.7-2.3c0.5-0.8,1.2-1.3,1.7-2c0.6-0.9-0.3-1.4,0.9-1.6c-0.2-0.6-0.4-1,0.1-1.5c0.3-0.3,1-0.1,1.3-0.5
		c0.3-0.4-0.1-1.3,0.3-1.6c0.4-0.2,0.9,0.4,1.5,0.1c0.4-0.2,1.1-1.6,1-2.1c1.1,0.6,0.9,0.2,1.4-0.6c0.1-0.2,0.5-0.2,0.6-0.4
		c0.2-0.4,0.2-0.7,0.5-1c0.5-0.5,1.3-0.4,1.9-0.7c0.5-0.3,0.4-0.6,0.8-0.9c0.3-0.2,0.8-0.3,1.1-0.5c0.6-0.5,0.6-1,1.3-1.4
		c0.9-0.5,1.7-0.9,2.5-1.6c0.5-0.4,1-1.2,1.6-1.5c0.8-0.4,1.5-0.4,2.3-1c0.6-0.4,1.2-1.1,1.7-1.4c0.4-0.3,0.8-0.2,1.3-0.4
		c1-0.3,1.2-1.2,2.1-1.6c0.6-0.3,1.4,0,2-0.2c1.9-0.4,3.8-1.4,5.7-1.9c2.4-0.6,4.7-1.2,7.1-1.7c-2.2,2.9-4.9,5.6-7.8,7.9
		c-0.9,0.8-6,4.3-3.3,5.8c1.1,0.6,3.5-1.3,4.4-1.8c1.8-1,3.6-1.7,5.5-2.5c3-1.2,6.9-3.5,10.3-3.3c-2,2.5-4.6,4.5-6.9,6.7
		c-2.1,2-5.4,3.9-4.4,7.2c-3-0.8-5.7-1.7-8.8-1.5c-1.4,0.1-2.8-0.1-4.2,0.1c-1.5,0.2-2.9,0.7-4.4,1.2c-1.2,0.4-2.4,0.4-3.5,1
		c-0.5,0.3-1.1,0.7-1.6,1c-0.6,0.5-0.8,0.8-1.2,1.4C-38.9,78-40.6,80.1-41.6,82.7 M-51,124.4c-0.1-0.4-0.2-0.7-0.3-1.2
		C-50.4,123.8-50.4,123.8-51,124.4 M-58.3,112.3c-0.1,0.2-0.6,0.2-0.8,0.1c-0.2-0.2,0.3-0.9,0.4-1C-58.5,111.5-58,111.9-58.3,112.3
		 M-60.3,107.8c0.1-0.5,0.3-0.9,0.4-1.4c0.2,0.4,0.9,0.9,0.9,1.3C-59,108-60.2,107.9-60.3,107.8 M-59.9,108.5
		c1.1,0.7,1.2,1.6,1.2,2.8C-60,110.9-59.8,109.6-59.9,108.5 M-40.8,59.3c-0.1,0.3-0.6,1.2-0.9,0.6C-41.8,59.7-41,59.4-40.8,59.3
		 M-41.1,58.3c0.3-0.2,0.8,0.1,1.1-0.1c0.2-0.1,0.1-0.3,0.2-0.4c0,0,0.3-0.6,0.4-0.7c0.2-0.2,0.7-0.4,0.9-0.6
		c0.7-0.6,1.1-1.4,1.6-2.2c0.5-1,0.7-1.1,1.6-1.5c0.6-0.3,1.1-0.7,1.6-1.2c0.6-0.6,0.5-1,1-1.7c0.2-0.3,0.6-0.4,0.8-0.6
		c0.3-0.3,0.5-0.7,0.8-1c0.1-0.1,0.5-0.1,0.6-0.2c0.1-0.1,0.2-0.7,0.3-0.8c0.2,0.2,0.4,0.5,0.5,0.7c0.7-1.2,1.2-2.2,2.4-3
		c1.2-0.9,2.3-2.1,3.5-2.9c0.3-0.2,0.9-0.2,1.1-0.5c0.4-0.4,0-0.8,0.3-1.2c0.3-0.4,0.9-0.1,1.3-0.3c0.5-0.2,0.6-0.9,1.3-0.8
		c-2.1,2.4-2,6.2-2.1,9.3c0,1.3,0.8,2-0.4,2.9c-1,0.8-2.5,0.6-3.7,1.1c-1.5,0.7-3.2,1-4.8,1.6c-1.6,0.6-2.9,1.7-4.5,2.4
		c-1.4,0.6-2.3,1.5-3.6,2.3c-0.5,0.3-1.2,0.7-1.8,0.4C-41.1,59-41.6,58.7-41.1,58.3 M-17.8,37.8c0.1-0.3,1.9-1.3,2.3-1.6
		c0.7-0.4,1.6-1.5,2.3-1.1c0.3-1,1.2-2.1,2.1-2.3c1-0.2,2.6-1.1,3.6-1.8c0.3-0.2,0.4-0.5,0.7-0.7c0.6-0.3,1.1-0.2,1.7-0.6
		c0.1-0.1,0.8-1.3,0.9-1.3c0,0.1,0.1,0.3,0.1,0.4c0.6-0.3,1.1-0.6,1.4-1c0.1-0.1-0.4-0.3-0.3-0.5c0.2-0.2,0.7,0,0.9-0.2
		c-0.6,3.2-0.2,7.2,3,8.8c-3.8,0.4-7.5-0.7-11.4,0c-1.8,0.3-3.7,0.9-5.4,1.7c-1,0.5-2.3,2.4-3.4,1.5C-18.9,38.6-18.3,38.3-17.8,37.8
		 M0.7,28.7c1.4-1.7,3.6-2.4,5.8-1.8C9,27.7,8,29.4,7.6,31.4c-0.7-1.1-2.3-2.1-3.7-2.2c-1.9,0-1.2,1.6,0,2.1C4.9,31.9,6.7,32,7.4,33
		c0.7,0.9,0.5,2.4,0.6,3.5c-0.6-0.1-1.1-0.2-1.7-0.3c0.5-2.5-1.6-2.7-3.6-3.4C0.7,32.1-0.9,30.7,0.7,28.7 M7.1,22.5v2.4
		c-0.8-0.5-1.6-0.9-2.4-1.4C5.5,23.1,6.3,22.8,7.1,22.5 M13.5,41.3c2.7,0.7,5.3,1.5,7.8,2.5c0.9,0.4,1.9,0.5,2.8,0.9
		c0.9,0.4,1,0.3,0.7,1.1c-0.9,2.1-2.9,1.8-4.7,1.4c-2.8-0.5-5.5-1.2-8.3-1.9c-2.7-0.6-5.5-1.1-8.1-1.9c-2.7-0.8-5.4-1.6-8.2-2.2
		c-0.8-0.2-7.3-0.8-7.2-1.4c4.1-0.5,8.3,0,12.4,0C5,40,9.4,40.2,13.5,41.3 M9.9,33.1c0.1-1.5,0.1-2.9,0.3-4.4
		c1.2,1.5,2.3,1.9,3.8,0.5c1.5-1.3,1.8-2,3.6-0.8c1.6,1.1,3.1,1,4.8,0.1c1-0.6,2.7-3,3.8-2.5c0.5,0.2,0.9,1.2,1.4,1.5
		c0.7,0.4,1.7,0.7,2.4,0.9c1.8,0.4,2.9-0.8,4-2c1.7-1.8,1.6-0.8,3.1,0.5c1.7,1.4,3.1,0.7,4.7-0.5c0.9,2.8,1.3,5.8,1.6,8.7
		c0.1,1,0.4,2.4-0.5,3.1c-0.6,0.5-1.9,0.5-2.7,0.8c-2.7,1-5.2,2.3-7.5,4.1c-0.9,0.7-1.6,1.5-2.8,1.4c-1.1-0.1-2.2-1.1-3.1-1.7
		c-1-0.7-2-1.4-3.1-1.8c-0.7-0.2-1.8-0.1-2.4-0.5c-1.1-0.8,0.2-2.7-0.1-4.1c-0.2-1-0.8-3.1-2.2-2.5c-2.1,0.9-0.9,4.3,0.3,5.4
		c-2.3-0.4-4.9-1-7.2-1.8C10.6,36.9,9.8,34.9,9.9,33.1 M49,40.2c4.8-1.3,9.3-2.2,14.2-2.5c2.2-0.1,4.3,0,6.5,0c1.3,0,2.2-1,1.2-2.2
		c-1.4-1.6-5.6-1-7.5-1.1c-5-0.2-9.6,0.4-14.4,2c0.5-0.9,1.7-1,2.5-1.5c1-0.6,1.7-1.6,2.1-2.6c1.1-2.8,0-5.4-1.2-8
		c2.3,0.6,4.7,2,7.1,2.3c0.5,0.1,0.8,0,1.2,0.2c0.3,0.1,0.3,0.5,0.7,0.6c0.2,0,0.5-0.3,0.7-0.3c0.7,0.2,0.1,0.3,0.6,0.5
		c0.4,0.2,0.3,0.5,1,0.4c0.3,0,0.6-0.5,0.8-0.5c0.2,0,0.1-0.3,0.4-0.2c0.5,0.1,0.5,0.8,0.7,1.2c0.2,0.4-0.1,0.9,0.5,1.1
		c0.4,0.1,0.5-0.3,0.9-0.3c0.2,0,0.7,0.3,0.9,0.5c0.6,0.6,1.5,1.3,2.4,1.8c-0.1-0.1,0.4-0.3,0.3-0.3c-0.1,0,0.4,0.1,0.4,0.1
		c0.5,0.1,0.8,0.9,1,1.2c0.5,0.5,1.2,1.1,1.8,1.3c1.1,0.4,1.1-0.1,1.5,1.3c0.8-1.3,1.1,0.8,2.1,1.1c0.5,0.1,0.5-0.1,0.9,0.2
		c0.3,0.2,0.5,0.7,0.8,1c0.1-0.4,0.2-0.8,0.3-1.2c0.7,1.4,2.3,3.5,3.9,3.1c0,0.4-0.2,0.8,0.1,1.1c0.2,0.2,0.5,0,0.7,0.1
		c0.1,0.1,0.5,0.6,0.6,0.6c0.2,0.1,0.6,0.2,0.8,0.4c0.2,0.1,0.2,0.7,0.4,0.9c0.3,0.4,0.9,0.5,1.2,1c0.1-0.5,0.1-1,0.2-1.5
		c0.5,0.4,0.6,0.7,0.7,1.3c0.2,0.9-0.1,0.7,0.5,1c0.6,0.4,0.9,0.3,1.4,0.9c0.5,0.6,0.5,1,1.3,0.3c0.1,0.5,0.2,1.1,0.6,1.4
		c0.3,0.3,1.5,0.3,1.6,0.9c-2.2-1.9-0.8,1,0,0c0.2,1,0.9,1.4,1.8,2.1c0.8,0.7,0.9,0.6,1.2,1.8c0,0,0.4,0.2,0.4,0.3
		c-0.8,0.1,0.4,1,0.6,1.1c0.1,0.1,0.3-0.2,0.6,0c0.3,0.2,0.5,0.7,0.7,1c0.6,0.8,1.1,1.5,1.7,2.1c0.7,0.7,1.1,1.6,1.7,2.4
		c0.8,0.9,1.2,2,1.8,2.9c0.6,0.9,1.4,1.7,2.1,2.5c1.1,1.4,1.5,4.4,3.5,4.5c-0.1,0.1,0,1.1,0.1,1.2c0.1,0.8,0,1.7,0.5,2.4
		c0.1-0.9,0.6-0.5,1-0.1c0.7,0.8,0.1,0.6,0.1,1.3c0,0.9,0.1,0.2,0.5,1c0.3,0.6,0.4,1.1,0.6,1.8c-1.2,0.1-1.7-0.9-2.1-1.8
		c-0.2-0.4-0.2-1-0.6-1.3c-0.3-0.3-0.8-0.3-1.2-0.7c-0.7-0.7-1-1.8-1.7-2.4c-0.9-0.8-1.1-1.1-1.8-2c-0.8-1-1.9-1.7-2.8-2.7
		c-0.9-1-0.8-0.4-1.9-0.8c-1.1-0.4-3-4-4.4-2.6c0.1-0.9-1.3-1.8-2-2.1c-0.3-0.1-0.6,0-0.9-0.2c-0.3-0.2-0.3-0.7-0.7-1
		c0,0-0.5,0.1-0.6,0.1c-0.2-0.1-0.2-0.5-0.4-0.6c-0.5-0.3-1.1-0.7-1.6-1c-1.3-0.7-2.4-1.5-3.7-2.4c-1.1-0.7-2.4-2-3.6-2.4
		c-1.1-0.3-1.8-0.2-2.6-0.8c-0.5-0.4-0.3-0.5-1.1-0.7c-0.7-0.2-1.2-0.1-1.5-0.9c-0.7-1.4-0.3-4-0.4-5.6c-0.1-1.6-0.3-3.3-0.7-4.9
		C75.6,38,75,37,72.9,37.5C69,38.4,65,39.2,61,40c-8,1.5-15.8,4-23.6,6.2c-0.6,0.2-3.9,0.9-3.2-0.8c0.3-0.8,2.4-1.1,3.1-1.3
		C41.2,42.7,45.1,41.3,49,40.2 M47.7,36.7c-0.6,0.2-1.2,0.4-1.7,0.7v-1.6C46.5,36.1,47.1,36.4,47.7,36.7 M45.2,28.2
		c0.5,0.4,1.5-0.6,2-0.8c0.7-0.3,1.7-0.6,2.5-0.6c1.5,0.1,2.6,1.6,2.3,3.1c-0.5,2.6-4.1,3.8-6.1,4.8c-0.1-0.9-0.4-2,0.3-2.8
		c0.6-0.7,1.6-0.6,2.1-1.4c1.3-1.8-2.2-2-3-0.5c-0.3-0.9-0.6-1.8-0.9-2.8C45.2,27.2,44.9,27.9,45.2,28.2 M48.8,23.2
		c-0.7,0.5-1.4,0.9-2.2,1.4C46.3,23,47.5,22.8,48.8,23.2 M114.6,79.4c-0.9,0.5-1.2-0.6-1.9-0.7C113.5,78.2,113.5,78.2,114.6,79.4
		 M118.4,102.9c0.1,1.5,0,3.1,0.2,4.7c0.2,1.2,0.6,2.3,0.7,3.4c0.1,2.6-0.8,5.2-2.5,7.1c-1.7,1.8-4.1,3.3-6.3,4.1
		c-1,0.3-2.1,1.1-3.1,1.4c-1.1,0.3-2.1-0.4-3,0.8c-0.6-5.2-0.2-10.6-0.2-15.8c0-5.2,0-10.4-0.9-15.6c-0.8-4.6-2.3-9.8-5.2-13.5
		c-1.2-1.5-2.6-2.8-4.1-3.9c-0.8-0.6-1.6-1.3-2.4-1.7c-1.3-0.7-2.5-0.6-3.9-0.8c-2.1-0.3-4-0.6-6.1,0c-2,0.5-4.1,1.2-5.8,2.1
		c-1.7,0.9-3.8,1.3-5.6,2.2c-1.2,0.6-3.8,2.5-5.1,2.2c-1.3-0.3-3.3-2.6-4.1-3.6c-1.1-1.3-2-2.8-2.9-4.1c-0.3-0.5-1-1.2-1.1-1.9
		c-0.2-1.1,0.3-0.7,1.3-0.6c2.7,0.3,5.1,0.8,7.7,1.6c1.3,0.4,3.7,2.1,5,1.1c1.9-1.5-1-4.2-2.1-5.1c-1.8-1.5-4-2.6-5.9-4
		c-2.1-1.4-4.8-2.9-6.2-5.1c3.9,1.1,7.8,2.5,11.6,3.9c1.7,0.7,3.4,1.4,5.1,2.3c0.9,0.5,2.8,1.9,3.9,1.2c2.4-1.4-3.1-5.6-3.9-6.4
		c-1.2-1.3-2.4-2.6-3.8-3.8c-0.9-0.8-2.3-1.4-2.8-2.6c1.5,0.5,2.7,1.6,4.2,2.4c0.7,0.4,1.4,0.6,2.2,0.7c0.9,0.1,1,0.3,1.7,0.6
		c0.5,0.3,1.1,0.6,1.7,0.8c0.4,0.1,1.2,0.2,1.6,0.4c0.2,0.3,0.4,0.5,0.6,0.8c0.2,0.1,0.5,0.1,0.7,0.2c0.3,0.3,0.5,0.7,0.9,1
		c2.4,2.2,5.5,3.8,8.1,5.7c2.5,1.8,5.1,3.4,7.5,5.3c2.8,2.2,5.6,4.6,8,7.2c1.3,1.5,2.4,3.2,3.5,4.9c0.8,1.2,2,2.2,2.7,3.4
		c1.5,2.7,2.8,5.6,4.4,8.3C116,96.9,118.2,99.6,118.4,102.9 M96,118.5c0.5-1.9,3-4.1,4.7-4.9C99.9,115.7,97.7,117.1,96,118.5
		 M100.3,125.1c-1.4,2.9-7.5,3.2-6.7-1.1c0.4-2.1,2.1-3.4,3.6-4.8c0.7-0.6,2.4-2.9,3.4-2.5c-0.1,1.6-0.1,3.3-0.1,4.9
		C100.5,122.7,100.8,124,100.3,125.1 M98.5,91.7c0.6,1.3,1.1,2.3,0.1,3.5c-0.5,0.5-2,1.6-2.7,1.4C93.6,95.7,97.9,92.3,98.5,91.7
		 M84.9,80.4c0.5,0,1.1,0.1,1.6,0c0.5,0,0.6-0.1,1.1-0.1c0.1,0.1,0.1,0.2,0.2,0.2c0.1,0.5,0.3,0.6,0.8,0.2c0.6,0.1,1.1,0.2,1.7,0.6
		c-1.7,1.2-3.7,2.6-5.8,3C81.2,85,82.1,80.5,84.9,80.4 M35.2,107.5c-0.3,0.7-1.3-1-1.5-1.3C34.1,106.1,35.6,106.8,35.2,107.5
		 M61.3,89.7c2.5-1.5,5.5-2.8,8.2-3.8c0.5,2.3-1.8,5.2-3.3,6.8c-1.2,1.3-2.5,2.6-4.1,3.3c-1.7,0.8-3.5,0.4-3.5-1.8
		c0-0.8,0.2-2.1,0.5-2.8C59.6,90.4,60.4,90.2,61.3,89.7 M27.3,48.1c0.4,0,4.4-0.5,4.4,0C31.6,49.6,27.7,48.4,27.3,48.1 M-1.5,77.4
		c2.1-2.6,5.6-5.5,5.7-9.2c0.1-5.4-6-2.7-9-2.5c1.6-1.6,9.7-8.2,4.9-10.6c-1.4-0.7-3.3,0-4.7,0.3c-2.4,0.6-4.7,1.7-7.1,2.5
		c1.7-1.8,4.7-3.9,4.6-6.7c-0.1-3.4-2.9-2.6-5.3-2.1c-0.9,0.2-5,1.8-5.8,0.7c-0.3-0.4,0.2-0.9,0.3-1.3c0.2-0.6,0.1-0.9,0.1-1.5
		c0-1.3,0.9-3,0.2-4.2c-0.2,0.3-0.3,0.6-0.4,0.9c-0.2-0.7-0.1-1.5-0.3-2.2c6,1.5,12.1,2.4,18.1,3.7c3,0.7,5.9,1.8,9,2.3
		c3.1,0.5,6.2,1.3,9.3,1.8c2.8,0.4,5.6,1.2,8.4,1.8c2.7,0.6,5.6-0.7,8.2-1.3c6-1.4,12-2.8,18-4.2c6.9-1.6,14.2-2.9,20.8-5.5
		c0.1,3.5,0.4,6.9,0.8,10.3c-2.9-1.4-7.3-3.2-10.2-0.7c-1.2,1-1.6,2.7-1.1,4.2c0.5,1.6,2.1,2.3,3.1,3.5c-3.1-0.8-11.2-6.5-12.7-0.7
		c-1,4,3.9,6.7,6.4,8.9c-2.4-0.5-5.6-2.4-7.1,0.7c-1.2,2.7,0.3,5.6,1.8,7.8c0.8,1.2,1.7,2.3,2.6,3.5c0.5,0.6,0.9,1.2,1.4,1.8
		c0.5,0.6,1.4,1.2,1.7,1.9c0.7,1.3-0.7,1.4-1.8,1.8c-1.3,0.6-2.5,1.6-3.7,2.3c-2.8,1.8-5.3,3.5-8.6,4c-3.4,0.6-6.7,1.2-10.1,2
		c-3.4,0.8-6.1,1.6-9.5,0.5c-1.6-0.5-2.8-0.9-4.5-0.8c-1.7,0.1-2.8,0-4.2-1.1C11.5,85.6,4.8,81.8-1.5,77.4 M-12.6,72.8
		c2.4-1.2,4.8-2.4,7.2-3.4c2-0.9,5.1-1.8,7.4-1.5c-0.6,1.6-1.8,2.9-3,4.1c-1.1,1.1-2.4,2.6-3.8,3.4C-6,76-7.4,75-8.6,74.5
		C-9.9,74.1-11.7,73.8-12.6,72.8 M-12.1,78.8c1.2-0.5,3.7,1.2,4.8,1.6c2.1,0.8,4.3,1.7,6.1,3.1c-2.3,2.6-4.9,5-7.9,6.7
		c-2,1.1-5.4,2.4-7.3,0.4c-2.4-2.5,0.5-7.7,2.2-9.9c0.1,0.4,0.1,0.7,0.2,1.1C-13.5,80.9-13.1,79.2-12.1,78.8 M31.6,101.4
		c-1.5,0.3-2,0-3-1.1c-0.7-0.8-1.3-1.6-2.1-2.3c-0.8-0.7-2.6-2.4-0.2-1.4c2.2,0.9,4.1,1.3,6.5,1c2.7-0.4,5.3-1.6,8-2.1
		c-1.5,1.3-3,2.6-4.4,3.9C34.8,100.7,33.6,101,31.6,101.4 M31.9,111.8c-3.2,2.4-9.8,2.2-7.6-3.2c0.3-0.8,0.8-1.6,1.3-2.3
		c0.2-0.2,0.5-0.7,0.8-0.9c0.7-0.4,0.5-0.5,1.2,0.2C28.2,106.3,32.9,111.4,31.9,111.8 M30.9,102.5c0.3-0.1,1.6-0.8,1.8-0.4
		C33.1,102.5,30.6,103.9,30.9,102.5 M54.6,139.7c-0.7,1.7-6.6,4.3-5.5,0.8c0.5-1.6,0.9-2.7,2.8-2.9
		C52.9,137.5,55.2,138.2,54.6,139.7 M65.1,116.1c1-1.4,4.1-3.3,5.5-1.2c0.7,1-0.9,1.5-1.9,1.3c-0.5-0.1-0.9-0.4-1.5-0.5
		C66.5,115.6,65.8,116.2,65.1,116.1 M67.6,117.4c-0.7,0.7-4.6,4-5.2,3.5C63.7,119.1,65.2,117,67.6,117.4 M61.2,151
		c-1.4,0.1-0.7-2-0.6-2.8C61,148.8,62.7,150.9,61.2,151 M64.7,147.3c-0.4-0.8-1.6-2-1.4-3c0.2-0.8,2.1-1.8,2.9-1.4
		C67.2,143.5,65.7,147.4,64.7,147.3 M97.2,139c-0.6,2-1.2,1.5-3,1.9c-1.8,0.4-3.1,2-4.7,2.8c0.6-1.2,0.9-2.6,1.9-3.6
		c0.2-0.2,1.6-0.7,0.8-1.2c-0.7-0.5-1.6,1-1.9,1.4c-1.4,2-2.4,4.4-3.2,6.6c-0.4,1.1-0.7,2.2-0.9,3.4c-0.2,1,0,2.1-0.2,3.1
		c-0.3,1.6-2.5,1.6-3.8,2.1c-1.2,0.4-2.4,0.8-3.7,1c-1.1,0.2-2.2-0.1-3.3,0.1c-1.1,0.2-1.7,0.9-2.9,0.8c-1.1-0.1-2-0.6-3.1-0.7
		c-1,0-2,0.3-3,0c-1-0.3-1-0.4-0.7-1.4c0.1,0.3,0.3,0.5,0.4,0.8c0.4-0.3,0.7-1.3,0.9-1.7c0.4-0.7,0.7-0.9,0.6-1.8
		c-0.2-1.3-1.4-2.2-1.6-3.4c-0.3-1.3,0.7-2.3,1.2-3.4c0.8-1.5,0.8-2.5,0.1-4c0.5,0.1,1,0.3,1.4,0.4c-0.7-1.4-2.9-0.8-4-0.4
		c-0.6,0.2-1.5,1-2.1,1c-0.8,0-1.3-1.1-1.6-1.7c-1-1.7-2.2-3.5-3.4-5.1c-0.3-0.4-0.8-0.7-0.7-1.2c0.1-0.4,1.1-1,1.4-1.3
		c1.2-1,2.7-1.5,3.8-2.6c1.7-1.6,3.6-2.7,5.3-4.3c1.8-1.6,3.6-3.1,5.5-4.6c1.9-1.5,3.5-3.4,5.4-4.9c0.5,0.9,1.4,4,2.5,4.2
		c1.2,0.3,1.2-1.2,1.1-2.1c-0.1-1.3-0.8-2.5-0.9-3.7c-0.1-1.3,1.2-1.9,2.1-2.6c1.4-1.2,4.6-3.8,2.9-5.9c-1.5-1.9-6.3,1.7-7.6,2.8
		c-1.1,0.9-2,1.7-3.3,2.5c-0.9,0.5-2.4,2.4-3.5,2.3c-1.3-0.2-1.8-1.6-3.3-1.5c-1.5,0-2.8,1.1-3.7,2.2c-2.1,2.5-2.8,5.8-4.8,8.3
		c-0.9,1.3-2.2,2.3-3.2,3.5c-1.1,1.3-1.4,2.8-2.5,4.1c-3.2-4.2-6.7-8.3-10-12.4c-1.7-2.1-3.3-4.1-5-6.2c-0.6-0.8-1.3-1.5-1.9-2.3
		c-0.8-1.1-0.6-2-0.9-3.3c-0.1-0.6-0.8-1.2-0.6-1.7c0.2-0.7,1.8-1.3,2.4-1.6c2.3-1.2,4.5-2.7,6.7-4.1c4.1-2.7,8.1-5.2,12.5-7.5
		c-0.1,1-0.7,2-0.3,3c0.2-0.6,0.5-3.1,1.3-3.2c-0.1,0,0,3.3,0.1,3.7c0.4,1.4,1.4,2.3,2.8,2.3c2.8,0,5.3-3,6.8-5.1
		c1-1.4,2.1-2.9,2.4-4.6c0.3-1.5,0-2.6,1.6-3.4c3.3-1.6,6.5-2.9,10-3.7c-0.2,1.5-0.6,3.3,0.8,4.4c1.5,1.2,3.5,0.1,4.9-0.7
		c1.4-0.8,3.6-2.9,5.2-2.3c1.6,0.6,2.8,2.6,3.7,4c0.8,1.2,1.7,2,0.7,3.4c-1,1.5-1.7,2.9-2.5,4.6c-0.3,0.6-0.6,1-0.4,1.7
		c0.1,0.2,0.9,1.4,1.1,1.6c1.4,1.1,3.4-1,4.4-1.8c0.4,3.5,0.4,7,0.6,10.5c0.1,2.6,1.1,5.1-1,7c-2.1,1.9-3.9,3.8-5.2,6.3
		c-0.7,1.4-1.3,2.8-2,4.1c-0.5,0.9-1.5,2.2-0.9,3.2c0.7-0.6,0.9-1.6,1.4-2.3c0.3,1.5,0.7,3.2,2.3,3.8c1.8,0.7,3.6-0.5,5.3-1.2
		C99.4,131.3,98.3,135.2,97.2,139 M95.3,143.7c-1.3,2.7-2.4,5.9-4.7,7.9c-0.5,0.4-2.7,2.1-3.5,1.8c-0.7-0.2-0.3-1.6-0.2-2.3
		c0.6-3.1,1.7-5,4.2-6.9c1-0.8,2.4-1.8,3.7-2C96.2,141.9,95.8,142.6,95.3,143.7 M130.7,207.2c-3.3-4.4-7.8-7.8-12.2-11.2
		c-2-1.5-4.1-2.6-6.1-4.1c-2.2-1.7-4.5-3.3-7-4.6c-4.8-2.4-10-4.1-14.5-7c-2.2-1.4-4.6-2.8-6.7-4.3c-0.9-0.7-1.7-1.6-2.5-2.4
		c-0.8-0.7-2.4-1.8-2.7-2.9c1.3-0.2,2-1.4,3.1-1.6c0.4,0,2.7,0.6,2.4-0.6c0.8,0,0.9,0,1.7-0.2c0.3-0.1,0.6,0,0.9-0.1
		c0.5-0.2,0.8-0.6,1.2-0.8c0.3-0.1,1.5,0,1.7-0.1c0.5-0.4,0-0.4-0.3-0.9c1,0,1.6,0.5,2.6-0.1c0.3-0.2,0.5-0.5,0.8-0.7
		c0.5-0.3,0.7,0.2,1-0.5c0.3,1,0.3,0.7,1.1,0.4c0.8-0.3,1.4-0.5,2.3-0.6c2.1-0.2,4.3,0.1,6.4-0.1c0.8-0.1,1.4-0.2,2.2-0.1
		c0.7,0.1,0.5,0.6,1-0.1c0.1-0.1-0.3-0.6-0.1-0.8c0.1-0.1,0.4,0,0.5-0.1c1-0.4,1,0.2,1.2,1c0.6-0.1,1.2-0.3,1.7-0.6
		c-0.3-0.2-0.7-0.5-0.4-0.9c0.8,0.3,1.4,0.2,1,1.1c0.8,0.3,1-0.1,1.8-0.2c0.5,0,1.1,0.2,1.5-0.1c0.4-0.4-0.2-0.8,0.5-1.2
		c0.2,0.1,0.3,0.2,0.3,0.4c0.4,0.1,0.3,0.3-0.2,0.5c1.5,0.8,1.1-0.1,1.8-1c0.1-0.2,0.8-0.9,1.1-0.5c0.4,0.5-0.5,0.6-0.3,1.1
		c0.3,0.8,1.5-0.2,1.9-0.6c0.3-0.3,0.4-0.9,0.7-1.1c0.4-0.3,1,0.2,1.5,0.1c2.3-0.4,4.5-3.6,2.8-5.7c-0.5-0.6-0.9-0.5-1.4-0.8
		c-0.6-0.4-0.9-1-1.3-1.5c-1-1.1-2.3-2-3.7-2.6c-3.3-1.3-6.9-2.2-10.4-2.9c-1.6-0.3-3.3-0.8-5-0.8c-1,0-2.4,0.8-3.3,0.4
		c-1.8-0.7,0.8-4.3,1.3-5.5c1.3-3.4,2.2-7.1,2.8-10.6c0.1-0.7,0.1-1.6,0.3-2.3c0.3-0.8,0.4-0.7,1-0.7c1.1-0.1,2.4,0.5,3.5,0.3
		c1.3-0.2,2.7-0.1,4-0.5c0.6-0.2,1.2-0.4,1.6-0.9c0.1-0.2,0-0.3,0.1-0.4c0,0,0.5-0.5,0.5-0.5c0-0.2,0-0.5,0.1-0.7
		c0.5,0.4,0.2,1.2,1,1.2c0.1-0.8,0.1-1,0.7-1.5c0,0,0.4-0.4,0.4-0.3c0-0.1,0.1-0.3,0.2-0.4c0.3-0.1,0.5-0.2,0.8-0.2
		c0.6-0.6,0.3-0.9,0.3-1.8c0.5,0.3,1,0.5,1.4,0.8c0.1-2.4,1.6-3.8,2.6-5.8c0.4-0.8,0.9-1.5,1-2.5c0.1-0.6-0.1-1.1,0.2-1.7
		c0.2-0.5,0.7-0.8,0.9-1.3c0.4-1.1,0.1-2.5,0.1-3.6c0-1.6,0.2-3.1,0.2-4.7c0.1-3-0.2-6.2-0.7-9.2c-0.2-1.4-0.6-2.8-0.9-4.3
		c-0.2-1.2-0.8-2.3-1-3.4c-0.1-0.5,0-0.9-0.1-1.4c-0.2-0.7-0.5-1.3-0.7-2c-0.5-1.5-1-3-1.6-4.5c-1.1-2.9-2.5-5.7-3.7-8.5
		c-1.2-2.7-2.2-5.5-3.8-8.1c-1.6-2.5-3.2-5-4.9-7.3c-1.8-2.5-4-4.6-5.8-7.1c-3.3-4.7-7.8-8.6-12.5-11.8
		c-9.8-6.6-20.4-13.2-32.1-15.5c-1.8-0.3-3.6-0.6-5.4-0.6c-1.1,0-3,0.5-4,0.1c-1.2-0.4-1.1-1.8-1.4-2.8c-0.4-1.3-1.2-2.2-2.2-3.2
		c-1-1-2-2.2-3.2-2.8c-1.3-0.7-2.8-0.9-4.3-1.2c-1.3-0.2-3.2,0-4.4-0.6c-1.1-0.5-0.5-1,0.5-0.6c0.1-0.4,0.1-0.7,0.4-1.1
		C32.3,8.3,33,8.1,33,7.9c0-0.2-0.5-0.7-0.6-1c-0.2-0.5-0.1-1.2,0.1-1.7c1,0.9,1.3,1.3,2.4,0.4c0.5-0.4,0.6-0.5,1.2-0.7
		c0.1,0,0.5,0.1,0.6,0c0.5-0.3,0-0.3,0.3-0.6c-0.1,0.1,0.4-0.9,0.3-0.7c0.1-0.5,0.2-0.4-0.1-1.1c-0.7-1.3-2.3-1.4-1.5-2.9
		c0.3-0.6,0.6-0.5,0.7-1.4c0.1-0.5,0-1,0-1.5c0-1,0.2-1.6-0.7-2.1c-0.9-0.5-1.7,0-2-1.1c-0.4-1.2,0-2.8-1.3-3.6
		c-1-0.6-2.4-0.1-3.4-0.4c-1.1-0.3-2.1-1.4-3.2-0.6c-0.8,0.6-1.2,2.1-2.6,1.3c-0.7-0.4-1-1.6-1.4-2.2c-0.7-1.1-1.2-1.5-2.2-0.4
		c-0.6,0.6-2,2.2-2,3.1c-0.1,1,0.8,1.4-0.3,2c-1.1,0.6-1.7,0.2-2.6,1.3c-0.9,1.2-0.2,1.8-1.2,2.9c-1.3,1.4-1.9,2-1.9,3.9
		c0,1.3-1.1,2.4-0.5,3.6c0.8,1.4,2.9,2,4.3,2.5c-0.4,0.8-1.1,1.3-0.5,2.2c0.5,0.8,1.8,0.9,2.6,0.8c0.6-0.1,0.6,0,1-0.4
		c0.3-0.3-0.1-0.6,0.5-0.7c0.6-0.2,1.6,1.1,2,1.4c-0.9,1.2-3.4,1.4-4.7,2c-0.8,0.4-1.5,0.9-2.4,1.2c-0.7,0.3-1.6,0.2-2.3,0.7
		c-1.2,0.8-1.6,2.7-2.4,3.9C8.3,19.4,7.5,20,6,20.3c-1.9,0.3-3.5,0.5-5.3,1.3c-2.2,1-4.4,2.1-6.5,3.2c-3.5,1.8-6.7,3.6-9.9,5.8
		c-3.4,2.3-6.7,4.6-9.9,7c-3.2,2.3-5.9,5.2-8.7,8c-2.3,2.3-4.3,4.7-6.5,7c-2.7,2.7-4.6,6.1-7.1,8.9c-1.4,1.6-2.6,3.1-3.5,4.9
		c-0.7,1.5-1.9,2.9-2.7,4.5c-1,2-2,4-3.1,5.9c-0.5,0.8-1,1.5-1.5,2.2c-0.6,1-0.6,1.9-0.8,3c-0.2-0.3-0.4-0.5-0.5-0.8
		c-0.3,0.7-0.7,1.4-1,2.1c-0.2,0.5-0.2,1.1-0.3,1.5c-0.2,0.5-0.5,0.4-0.8,0.9c-0.3,0.5-0.4,1.1-0.7,1.5c-1.4,2.1-1.9,4.7-2.6,7.1
		c-0.9,3.2-0.8,6.9-0.7,10.2c0.1,3.5,0.2,7,0.8,10.4c0.5,3.1,1.5,6.1,3.1,8.8c1.4,2.4,3.3,3.8,5.7,5c1.1,0.6,2.2,0.4,3.3,0.5
		c1.3,0.1,2.2,0.4,3.5,0.1c0.7-0.1,1-0.6,1.5-0.8c0.3-0.1,0.5,0.1,0.8,0c0.4-0.1,1.4-0.3,1.8-0.2c1.5,0.2,1.2,2.4,1.4,3.6
		c0.2,1.8,0.4,3.6,0.7,5.3c0.6,3.7,2,7.2,2.8,10.8c-3.8,0.5-7,1.2-10.6,2.6c-3.6,1.4-7.2,1.9-10.9,2.6c-3.5,0.7-6.9,1.9-9.7,4.2
		c-1.3,1.1-2.7,2.3-1.7,4c0.6,1.1,1.7,1.4,2.7,2.1c0.2-0.2-0.4-0.8-0.5-0.9c0.8,0.2,0.8,0.5,1.4,0.9c0.5,0.3,0.9,0.3,1.5,0.5
		c1.4,0.5,2.1,1.7,3.4,2.1c0.4,0.1,1,0.4,1.4,0.4c0.5,0.1,0.9-0.1,1.5,0c0.3,0.2,0.6,0.3,0.9,0.4c0.2-0.1,0.4-0.2,0.7-0.3
		c0.8,0.1,1.2,0.6,1.9,1c0-0.5,0-1,0.5-1.3c0.2,0.5-0.1,0.8,0.4,1.1c0.6,0.4,1.5-0.1,2-0.4c0.2,1.6,3.9,1.5,5.1,1.5
		c1.6,0,3.3-0.7,4.9-0.3c0.8,0.2,1.7,0.4,2.6,0.6c1,0.3,2.2,0.5,3.2,0.9c0.4,0.1,0.9,0.6,1.3,0.6c0.3,0,0.4-0.5,0.8-0.5
		c0.4,0,0.6,0.5,1,0.7c0.6,0.2,1.1-0.2,1.6,0c0.2,0.1,0.5,0.4,0.7,0.5c0.4,0.2,1.1,0.2,1.6,0.2c0.6,0.1,1.1,0,1.7,0.1
		c0.4,0,0.4,0.3,0.6,0.3c0.2,0,0.6-0.8,0.9-0.9c0.4-0.2,1.3,0.2,1.7,0.3c-3.3,4.5-7.3,8.4-11.6,11.8c-4.6,3.7-9.4,7.4-14.4,10.7
		c-4.5,3-8.9,5.5-12.4,9.7c-3,3.5-7.7,7.3-6.9,12.4c0.7,5.1,6.3,7.2,10.7,8.2c5.6,1.2,11.4,0.7,17,1.4c2.4,0.3,5.1,0.1,7.5-0.1
		c2.8-0.3,5.3-2.1,7.7-3.5c4.4-2.4,8.2-5.6,12.5-8.1c5.4-3.1,10.8-6.4,16.7-8.5c2.8-1,5.6-2.1,7.8-4.1c0.3-0.3,0.6-0.7,1-1
		c0.6-0.4,0.8,0,1.2-0.1c0.3-0.1,0.6-0.4,0.8-0.5c0.6-0.2,0.9-0.1,1.6-0.1c-0.6-0.3-1.1-1.2-0.5-2c1.1-1.2,1.2,0.7,1.6,1.2
		c0.3-0.4,0.2-0.8,0.1-1.3c0.3,0.2,0.6,0.4,0.9,0.6c-0.2-1,0-1.8,0.5-2.7c0.5-0.8,0.6-0.7,0.7-1.7c1.5,1.3,1.7-1.9,1.9-3.1
		c0.1-1.1,0-2,0.8-3c0.8-1.1,2-1.7,3.1-2.6c1.6-1.3,3.4-3,5.6-1.7c1.8,1,2.7,3.4,4.4,4.7c1,0.8,2.1,0.8,2.7,2c0.5,1,0.7,2.1,1.2,3.1
		c1.2,2.4,2.9,5.1,4.8,6.9c1.8,1.7,4.1,1.7,6.2,2.7c2.1,1,4.3,2.2,6.5,2.9c2.4,0.8,5,1.2,7.4,2.2c1.2,0.5,2.3,1.3,3.5,1.8
		c1.3,0.5,2.7,0.9,4,1.4c5.3,1.9,10.5,4.3,16,5.3c2.5,0.5,4.7,1.8,7.2,2c1.1,0.1,1.9,0.3,3,0.5c1.6,0.4,1.3,0.6,1.9,2
		c1,2.2,3.4,0.9,5.3,1c3,0.1,5.9-0.4,8.9-0.4c5.2,0,10.2-0.6,15.3-2.3C129.1,217,134.9,212.9,130.7,207.2"/>
	<path id="ink_1_" d="M70.4,31.9C70.5,32,70.6,32.1,70.4,31.9"/>
	<path id="ink_2_" d="M-21.5,127.5c1.1-1.1,6-0.9,6.3,1.1c0.4,2.3-3.9,5.7-5.5,6.7c-2,1.2-4.5,1.5-4.1-1.7
		C-24.5,131.3-23.1,129.1-21.5,127.5 M-17.5,125.1c0.1,0.6-0.9,0.4-1.2,0.3C-18.9,125.1-17.7,124.5-17.5,125.1 M-25.8,129.3
		c1,0.1,2.1-1.5,2.8-2c0.3,0.5-1.8,3.2-2,3.8c-0.6,1.6-0.9,3.5-0.1,5.1c2.3,4.5,8.2-1.9,9.7-4.2c1-1.6,1.8-3.5,0.3-5.1
		c-0.5-0.6-1.4-0.7-1.9-1.2c-0.6-0.7-0.1-1.6-1.4-1.4c-0.9,0.1-1.9,0.9-2.8,1.2c-1,0.3-2,0.7-2.9,1.4C-24.3,127-27,129.2-25.8,129.3
		"/>
	<path id="ink_3_" d="M42.1,130.8c-0.6,3.1-3.7,6.3-6.9,6.4c-3.2,0.1-4.3-3.3-3.7-5.9c0.5-2.3,2.5-6.3,5.3-5.8
		C39,125.8,42.6,128.2,42.1,130.8 M40.1,125.6c-2-1.6-4.9-2.3-7.2-1.1c-0.8,0.4-3.9,2.2-2.9,3.5c1.3-1,2.4-2.4,4-2.7
		c-0.3,1.3-1.9,2.4-2.4,3.7c-0.7,1.5-1,3.1-0.9,4.7c0.2,2.9,2.1,5.1,5.1,4.7c2.7-0.4,5.1-2.4,6.4-4.8
		C43.7,130.6,42.8,127.7,40.1,125.6"/>
	<path id="ink_4_" d="M21,137.9c-1.5,2.2-3.7,4.2-6.3,4.8c-3.3,0.9-2.4-1.9-1.4-3.9c0.9-1.7,2.4-4.7,4.7-4.7c0.8,0,2.2,0.4,2.9,0.8
		C22.3,135.8,21.8,136.7,21,137.9 M17.9,133.1c0.5-0.6,2.8-3.1,3.2-1.1c0.7-0.8,0.1-1.4-0.7-1.5c-1-0.1-2.2,1-2.9,1.6
		c-1.5,1.2-2.7,2.4-3.7,4c-1.1,1.8-4,5.9-1.5,7.7c2.7,1.9,6.6-1.6,8.3-3.5c1.1-1.2,2.5-2.9,2.1-4.6
		C22.2,133.6,19.7,133.3,17.9,133.1"/>
	<path id="ink_5_" d="M6.5,98.4c-1.5,1.7-4.6,4.2-7.1,3.9c-2.3-0.3-1.4-2.8-0.6-4.1C0,96.4,1.7,94.6,4,94.5c1,0,2.3,0,3.1,0.7
		C8.2,96.3,7.3,97.5,6.5,98.4 M6.3,93.6c-1.8-0.6-2.5-0.8-4.2,0.1c-1.4,0.8-2.6,1.9-3.5,3.1c-1.4,1.9-2.8,6.1,0.8,6.6
		C3.4,104,12.8,95.9,6.3,93.6"/>
	<path id="ink_6_" d="M11.7,104.3c-1.1,1.2-2.6,2.1-4.2,2.4c0.7-1.5,2.2-4.9,4.1-5.4c0.8-0.2,1.8,0.1,1.7,1
		C13.3,103.1,12.2,103.9,11.7,104.3 M13.2,100.3c-0.9-0.5-0.6-0.8-1.8-0.4c-0.9,0.3-2,0.8-2.7,1.4c-0.4,0.3-1.6,1.5-1.5,2
		c0.3,1,1.2-0.6,1.4-0.9c0.4,0.3-1.7,3.4-1.8,3.9c-0.5,1.8,1,2,2.4,1.4C11.2,106.9,16.9,102.1,13.2,100.3"/>
	<path id="ink_7_" d="M41.4,150.1c0.1-1.2,0.3-2.5,1.5-3.2c1-0.6,2.1-0.5,2.2,0.7c0.1,1.2-1,3.3-2,3.9
		C41.8,152.4,41.5,151.3,41.4,150.1 M43.1,152.8c2.7-1.6,4.4-8.8-0.6-6.7C39.7,147.3,40.7,154.2,43.1,152.8"/>
	<path id="ink_8_" d="M20.1,123c0.4-0.9,0.9-1.2,1.8-1.5C21.3,122,20.8,122.5,20.1,123 M20.8,120.9c-0.6,0.6-2,1.5-1.8,2.6
		c0.2,1,0.9,0.9,1.6,0.6c1.4-0.6,2.2-3.4,3.6-3.6C22.5,119.5,22.2,119.5,20.8,120.9"/>
	<path id="ink_9_" d="M21,66.7c0.1,2.9,0.1,5.8,0.2,8.7c0,1-0.2,2.5,0.1,3.5c0.1,0.4,1.4,2.3,1.8,2.4c1.5,0.4,1-3.4,1-4.3
		c0-3.2,0-6.3,0-9.5c0-1.6,0.5-15.3-1.7-15.2c-0.4,0-1.3,1.6-1.4,1.9c-0.4,1-0.3,2.4-0.3,3.5C20.7,60.7,20.9,63.7,21,66.7"/>
	<path id="ink_10_" d="M33.8,75.2c0.1,0.8,0.1,2.1,1,2.6c0.8,0.4,1.1-0.1,1.4-0.7c0.7-1.5,0.4-3.9,0.4-5.5c0-3.2-0.4-6.3-0.6-9.5
		c-0.1-1.4,0.1-2.8-0.1-4.2c-0.1-0.6-0.2-3.2-1.3-3.1c-1.1,0.1-1,2.8-1,3.5C33,63.9,33,69.4,33.8,75.2"/>
	<path id="ink_11_" d="M84.3,141.3c-0.5,2.3-7.8,10.4-9.7,5.9c-1.1-2.7,1.3-5.6,3.2-7.1c1.2-1,2.6-1.9,4.2-1.6
		C83.2,138.7,84.6,139.9,84.3,141.3 M80.5,137.2c-0.5,0.1-4.9,3.2-4.9,3.1c-0.4-0.4,2.4-4.5,2.7-4.8c2.3-3,3.9-0.7,5.3,1.6
		c-0.3-1.4-1.2-3.4-2.6-4c-1.8-0.7-3.2,1.1-4.1,2.4c-1.2,1.9-1.9,3.9-2.6,6c-0.3,1-0.7,1.9-1.2,2.8c-0.5,0.9-1.5,1.9-1.4,3
		c0.8-0.4,1.2-1.3,1.7-2c0.5,0.2,0.4,1.9,0.5,2.4c0.3,1.1,1,2,2.2,2.2c2.2,0.4,4.5-1.7,6-3c1.5-1.4,3.2-3.4,3.2-5.6
		C85.2,138.9,82.9,136.6,80.5,137.2"/>
	<path id="ink_12_" d="M86.4,100c-1.2,1.9-3.4,4.2-5.7,4.6c-1.7,0.3-2.8-0.9-2.1-2.6c0.6-1.4,2.5-2.3,3.8-2.9
		C83.4,98.5,88.1,97.4,86.4,100 M85.5,96.9c-2.5-0.1-4.6,1.7-6.5,3.2c0.4-1.7,1.4-3.5,2.8-4.6c1.9-1.5,3.6-0.6,5.6,0.2
		c-0.5-1.5-2.6-2.1-4-1.8c-1.7,0.3-3,1.8-3.9,3.2c-1,1.7-1.4,3.7-2.6,5.3c-0.6,0.7-4.1,3.5-3.3,4.6c1.3-1.4,2.6-2.8,3.9-4.2
		c0.3,1.6,0.7,3.5,2.8,3.3c1.7-0.1,3.6-1.5,4.8-2.6C86.6,102.1,89.7,97.1,85.5,96.9"/>
	<path id="ink_13_" d="M50,113.1c-1.1,0.5-3.4,1.2-4-0.3c-0.8-2.1,1.8-5.7,3.1-7c0.8-0.8,1.3-1.3,2.4-0.7c0.9,0.4,2.2,1.7,2.5,2.6
		C54.7,109.6,51.6,112.3,50,113.1 M52.4,103.2c0.9,0.2,1,1.3-0.1,0.9C51.5,103.7,51.3,102.9,52.4,103.2 M53.5,104.7
		c-0.3-1,0.3-2.6-1.3-2.6c-0.9,0-2.6,0.9-3.4,1.3c-1.1,0.5-2.1,1.3-2.7,2.4c-0.5,1-0.2,1.3,0.7,0.5c0.1,0.1-1.8,5.1-1.9,5.6
		c-0.1,2.3,1.5,3.8,3.8,3.4c2.1-0.4,4-2.1,5.1-3.8c0.6-0.9,1.1-1.9,1.1-2.9C55.1,106.8,54,106.2,53.5,104.7"/>
	<path id="ink_14_" d="M63.5,103.9c-0.9-1.7,1.2-4.6,3-3.7C70.3,101.9,64.7,106.1,63.5,103.9z M67,101.7c-0.4,0-3,1-2.6,1.7
		C64.9,104.3,66.8,102.1,67,101.7z"/>
	<path id="ink_15_" d="M-58.1,98.6c-0.1-0.7-1.7,0.3-1.7,0.8C-59.5,98.8-57.9,100.1-58.1,98.6"/>
	<path id="ink_16_" d="M30.7,43.9c2.1-0.2-0.6-10.6-2.1-9.6C27,35.3,28.8,44.1,30.7,43.9"/>
	<path id="ink_17_" d="M34.5,39.1c1.9,0.3,1.6-4.2,0.6-5C33.2,32.6,32.2,38.7,34.5,39.1"/>
</g>
</svg>
